<svg xmlns="http://www.w3.org/2000/svg" xmlns:xlink="http://www.w3.org/1999/xlink" width="98" height="86" version="1.1" viewBox="0 0 98 86"><title>Group 21</title><desc>Created with Sketch.</desc><g id="Page-1" fill="none" fill-rule="evenodd" stroke="none" stroke-width="1"><g id="A-Copy-2" transform="translate(-547.000000, -60.000000)"><g id="Group-2" transform="translate(244.000000, 45.000000)"><g id="Group-21" transform="translate(303.000000, 15.000000)"><polygon id="Rectangle-62" fill="#FEFEFE" points="15.5 14.61 78.682 14.61 78.682 68.89 15.5 68.89"/><g id="Group-Copy"><polygon id="Fill-7" fill="#C7764E" points="70.009 7.15 72.459 17.805 74.964 21.892 49.232 39.781 21.736 21.808 27.732 15.693 28.245 8.776 27.664 7.152"/><polygon id="Fill-9" fill="#AA6B44" points="4.562 35.51 14.371 26.76 17.455 25.923 28.01 44.784 .023 58.473"/><polygon id="Fill-11" fill="#AA6B44" points="97.578 58.423 67.875 46.965 79.181 23.88 93.027 35.583"/><polygon id="Fill-17" fill="#BCAC9C" points="82.88 27.21 83.779 20.708 85.672 13.232 86.644 4.588 87.28 3.384 89.203 4.493 95.798 9.827 93.027 35.583"/><path id="Fill-19" fill="#BCAC9C" d="M14.7646354,27.202482 C11.7374732,30.4280037 8.02387125,32.8163249 4.56214842,35.5100863 C3.2787645,26.9761619 2.20758641,18.4192375 1.84037807,9.78871305 C4.52247516,8.98923263 6.95822896,9.68199299 9.29526092,11.0049537 C9.89312776,11.4161939 10.3987312,11.9194341 10.8148391,12.5128345 C12.5567722,17.2931569 15.5184274,21.7523992 14.7646354,27.202482"/><path id="Fill-21" fill="#D1D2C3" d="M75.2653461,77.2667918 L92.7657101,66.1003495 C86.909675,76.6012646 81.538583,82.7198293 76.6524341,84.4560435 C71.7662851,86.1922578 63.845349,84.7968011 52.8896259,80.2696734 L61.9886426,77.9117122 L62.7452025,77.8132721 L75.2653461,77.2667918 Z"/><path id="Fill-23" fill="#D1D2C3" d="M21.9716821,84.4560435 C15.3370777,82.4341458 9.38485687,76.0469108 4.11501979,65.2943384 L22.8829843,77.65632 L35.5525946,77.9277202 L39.0089662,80.7760416 C34.2853813,85.251274 28.6062866,86.4779412 21.9716821,84.4560435 Z"/><polygon id="Fill-25" fill="#9C5D3E" points="89.324 4.078 73.675 12.896 79.892 18.274 74.636 21.725 65.399 11.108 70.01 7.149 88.566 .525"/><polygon id="Fill-27" fill="#9C5D3D" points="32.35 12.551 22.209 21.756 18.268 17.893 20.419 16.256 23.919 13.109 20.101 9.062 8.505 4.97 9.072 .032 27.664 7.152"/><path id="Fill-41" fill="#FEFEFE" d="M62.7391131,78.2000403 L57.7857679,70.4559363 L53.8818265,66.4240342 L52.8598248,57.6338897 L45.0524958,57.4305696 L42.2910522,59.8740909 C43.8956481,62.8144857 44.499266,64.9978002 44.101906,66.4240342 C43.7045459,67.8502683 41.8744399,70.0691562 38.6115877,73.0806977 L34.691039,78.2000403 L25.7675996,61.2982516 L27.395126,55.8104488 L33.0794742,50.7173261 L35.628712,48.0024047 L38.1890213,46.2939639 L48.8468282,40.3954779 L59.4299017,46.2691239 L61.1884421,47.8800447 L63.6085111,50.3106859 L64.7147493,50.8378462 L71.9260568,61.2936516 L62.7391131,78.2000403 Z"/><polygon id="Fill-43" fill="#C37D55" points="75.776 22.483 81.599 25.825 63.405 43.173 63.405 35.402 53.66 35.402 74.636 21.725"/><path id="Fill-45" fill="#C37D55" d="M13.3323499,23.5214653 L20.6683715,19.2525373 L41.850679,34.6288179 C35.9458213,35.0695236 32.9933924,35.3271238 32.9933924,35.4016183 C32.9933924,35.4761127 33.2394282,37.9171807 33.7314996,42.724822 L13.3323499,23.5214653 Z"/><path id="Fill-53" fill="#C8764A" d="M59.6241161,8.57247242 L36.0342096,8.57247242 C36.0360549,8.41975234 36.0369775,8.26703226 36.0388228,8.11431218 L59.7846544,8.11431218 L59.6241161,8.57247242 Z"/><polygon id="Fill-55" fill="#FBFBFD" points="25.767 61.299 21.405 65.688 10.666 67.16 4.281 65.688 8.857 53.912 23.938 46.545 29.336 49.205 34.087 51.161"/><polyline id="Fill-57" fill="#9C5C3C" points="34.938 43.765 27.428 46.313 18.806 28.568"/><path id="Fill-59" fill="#C39379" d="M28.5251681,44.7283991 L39.1196823,46.5454 L34.852518,51.653804 C32.706572,51.7733923 30.5848461,51.3423383 28.4873401,50.360642 C26.3898342,49.3789456 24.8733315,48.1071983 23.9378318,46.5454 L27.6302131,44.686079 L28.5251681,44.7283991 Z"/><polygon id="Fill-61" fill="#FBFBFD" points="63.609 51.166 68.391 49.199 73.752 46.578 89.329 54.966 93.002 65.688 76.025 64.216 71.926 61.294"/><polygon id="Fill-65" fill="#9C5C3C" points="78.623 28.651 69.269 46.321 63.593 42.815"/><polygon id="Fill-69" fill="#B2B6BF" points="41.677 65.849 44.574 75.089 34.822 78.269"/><polygon id="Fill-71" fill="#B2B5BF" points="62.544 78.083 52.989 74.49 55.85 65.009"/><path id="Fill-73" fill="#AC937C" d="M79.2517709,18.0788373 C76.0032401,16.9085341 73.9445361,15.6628534 73.0756588,14.3417954 C72.2067814,13.0207374 72.2862328,11.2571237 73.3140128,9.0509544 L88.4015324,4.0791901 L86.4160689,12.8796922 L79.2517709,18.0788373 Z"/><path id="Fill-75" fill="#AC937C" d="M9.20382789,11.61519 L9.20382789,3.58782216 L25.0567396,9.92588727 C25.980681,11.2894656 25.7836602,12.7834067 24.4656772,14.4077106 C23.1476942,16.0320144 21.1327824,17.2640953 18.4209417,18.1039533 L9.20382789,11.61519 Z"/><polygon id="Fill-77" fill="#A99D8B" points="62.444 77.909 58.567 81.916 37.586 81.916 35.207 77.891 45.214 74.184 53.443 74.184"/><polygon id="Fill-83" fill="#212022" points="27.603 44.728 34.016 42.845 39.12 46.552 33.139 48.445"/><polygon id="Fill-93" fill="#7E828B" points="56.081 65.724 53.443 74.184 44.243 75.052 41.555 65.777"/><path id="Fill-13" fill="#DFEBED" d="M4.62894712,65.7473739 C13.2554688,60.0997411 20.4753875,58.4511002 26.2887033,60.8014513 C32.1020191,63.1518025 35.1488334,68.9513321 35.4291462,78.2000403 L23.7939009,79.4001809 L4.62894712,65.7473739 Z"/><path id="Fill-15" fill="#DFEBED" d="M73.7095083,79.4258489 L62.0010059,78.2000403 C63.8432466,68.3265429 66.979987,62.5144093 71.411227,60.7636393 C75.842467,59.0128694 82.9495531,60.7776973 92.7324853,66.0581229 L73.7095083,79.4258489 Z"/><path id="Fill-81" fill="#212022" d="M56.0801866,65.7243739 L49.1341042,70.0186868 L41.5551593,65.7768139 C41.27708,61.8974572 41.270314,59.4919626 41.5348613,58.5603302 C41.7994087,57.6286978 42.6796015,56.9583241 44.1754399,56.5492092 C49.2304919,56.3707282 52.3406912,56.3768616 53.5060377,56.5676092 C55.2540575,56.8537305 56.0801866,56.2814878 56.4621113,58.5603302 C56.7167278,60.0795585 56.5894196,62.467573 56.0801866,65.7243739 Z"/><path id="Fill-31" fill="#D0C2B1" d="M88.565669,0.525136271 C90.9711848,-0.230046293 96.3187892,6.84442864 95.8000423,9.82542107 C95.454211,11.8127494 92.3327522,12.7926935 86.4356658,12.7652537 C86.2519907,5.10863044 86.9619918,1.02859131 88.565669,0.525136271 Z"/><path id="Fill-67" fill="#C29278" d="M70.0589223,44.673199 L73.7522263,46.57852 C72.1920454,48.5217496 70.6764653,49.7735636 69.2054859,50.333962 C67.7345064,50.8943603 65.5746202,51.042787 62.7258272,50.7792422 L59.5753254,46.57852 L64.1691237,44.673199 L70.0589223,44.673199 Z"/><polygon id="Fill-63" fill="#452922" points="74.397 21.686 86.384 12.802 83.682 27.877"/><polygon id="Fill-33" fill="#E2B48F" points="89.329 54.967 97.578 58.422 92.696 66.233"/><polygon id="Fill-85" fill="#212022" points="59.625 46.604 63.593 42.815 70.232 44.665 64.72 48.428"/><path id="Fill-29" fill="#D0C2B1" d="M9.822241,12.1054633 C4.6384694,12.7490454 1.97747937,11.9768874 1.83927091,9.78898905 C1.63195823,6.50714157 7.26074185,-0.490444793 9.05953622,0.031523942 C10.2587325,0.379503099 10.5129674,4.40414954 9.822241,12.1054633 Z"/><polygon id="Fill-51" fill="#442822" points="23.352 20.78 14.795 27.406 9.86 11.969"/><polygon id="Fill-35" fill="#E1B28E" points="4.628 65.748 .023 58.473 9.049 53.957"/></g></g></g></g></g></svg>